HIERARCHY
ROOT hip
{
	OFFSET 0.000000 0.000000 0.000000 
	CHANNELS 6 Xposition Yposition Zposition Xrotation Zrotation Yrotation
	JOINT abdomen
	{
		OFFSET 0.000000 3.402643 0.000000 
		CHANNELS 3 Xrotation Zrotation Yrotation
		JOINT chest
		{
			OFFSET 0.000000 8.438565 -0.680529 
			CHANNELS 3 Xrotation Zrotation Yrotation
			JOINT neck
			{
				OFFSET 0.000000 10.207942 -0.272212 
				CHANNELS 3 Xrotation Zrotation Yrotation
				JOINT head
				{
					OFFSET 0.000000 3.130431 0.000000 
					CHANNELS 3 Xrotation Zrotation Yrotation
					End Site
					{
						OFFSET 0.000000 3.130435 0.000000 
					}
				}
			}
			JOINT lCollar
			{
				OFFSET 3.470700 6.669187 -0.816635 
				CHANNELS 3 Yrotation Zrotation Xrotation
				JOINT lShldr
				{
					OFFSET 3.198488 0.000000 0.000000 
					CHANNELS 3 Zrotation Yrotation Xrotation
					JOINT lForeArm
					{
						OFFSET 10.139888 0.000000 0.000000 
						CHANNELS 3 Yrotation Zrotation Xrotation
						JOINT lHand
						{
							OFFSET 8.370511 0.000000 0.000000 
							CHANNELS 3 Zrotation Yrotation Xrotation
							End Site
							{
								OFFSET 4.083176 0.000000 0.000000 
							}
						}
					}
				}
			}
			JOINT rCollar
			{
				OFFSET -3.470700 6.669187 -0.816635 
				CHANNELS 3 Yrotation Zrotation Xrotation
				JOINT rShldr
				{
					OFFSET -3.198488 0.000000 0.000000 
					CHANNELS 3 Zrotation Yrotation Xrotation
					JOINT rForeArm
					{
						OFFSET -10.139888 0.000000 0.000000 
						CHANNELS 3 Yrotation Zrotation Xrotation
						JOINT rHand
						{
							OFFSET -8.370511 0.000000 0.000000 
							CHANNELS 3 Zrotation Yrotation Xrotation
							End Site
							{
								OFFSET -4.083176 0.000000 0.000000 
							}
						}
					}
				}
			}
		}
	}
	JOINT lThigh
	{
		OFFSET 5.308129 -1.633274 1.361059 
		CHANNELS 3 Xrotation Zrotation Yrotation
		JOINT lShin
		{
			OFFSET -2.041588 -20.007561 0.000000 
			CHANNELS 3 Xrotation Zrotation Yrotation
			JOINT lFoot
			{
				OFFSET 0.000000 -19.190928 -1.224953 
				CHANNELS 3 Xrotation Yrotation Zrotation
				End Site
				{
					OFFSET 0.000000 -2.449906 4.627600 
				}
			}
		}
	}
	JOINT rThigh
	{
		OFFSET -5.308129 -1.633274 1.361059 
		CHANNELS 3 Xrotation Zrotation Yrotation
		JOINT rShin
		{
			OFFSET 2.041588 -20.007561 0.000000 
			CHANNELS 3 Xrotation Zrotation Yrotation
			JOINT rFoot
			{
				OFFSET 0.000000 -19.190928 -1.224953 
				CHANNELS 3 Xrotation Yrotation Zrotation
				End Site
				{
					OFFSET 0.000000 -2.449906 4.627600 
				}
			}
		}
	}
}
MOTION
Frames: 16
Frame Time: 0.033333
-32.500481 -13.703386 -8.127514 -5.684659 1.107808 49.235455 0.000000 0.000000 0.000000 38.840931 4.463152 -0.398453 -7.786651 12.887336 24.072487 -0.600009 -4.106785 -1.210495 22.812876 25.317078 25.000000 44.147636 -107.634064 -68.799553 1.088786 -0.900285 10.043892 50.605968 -5.598051 -13.314100 -18.469543 -17.849195 20.285101 104.457817 58.541676 41.283905 -1.093899 0.821654 11.538716 -48.451305 17.012632 -13.338744 -82.283714 11.640331 10.261985 100.416237 4.118692 -17.362373 -4.659004 -2.779907 27.893524 -81.520744 -8.417777 -8.586979 75.261871 -1.777365 2.221066 13.397534 5.851415 -2.172876 
-32.498852 -13.703948 -8.129272 -5.684659 1.107808 49.235455 0.000000 0.000000 0.000000 38.801826 4.465594 -0.421024 -7.770627 12.889433 24.016359 -0.550946 -4.097708 -1.205775 22.763779 25.326248 25.000000 44.274406 -107.645905 -68.901566 1.089174 -0.903122 9.995982 50.587917 -5.599200 -13.319754 -18.460186 -17.848200 20.247299 104.441956 58.479214 41.256618 -1.093878 0.818834 11.519391 -48.421768 17.017319 -13.327744 -82.287361 11.608774 10.255969 100.406509 4.128260 -17.351402 -4.645566 -2.775612 27.884226 -81.530838 -8.427456 -8.570365 75.271637 -1.777362 2.221407 13.392286 5.838298 -2.106450 
-32.498970 -13.703473 -8.127572 -5.694427 1.107789 49.205971 0.000000 0.000000 0.000000 38.780373 4.436363 -0.388349 -7.766414 12.887308 23.927542 -0.550724 -4.078426 -1.199108 22.766224 25.375853 25.000000 44.339268 -107.704742 -68.979027 1.089561 -0.914331 9.938827 50.586159 -5.605569 -13.352992 -18.517643 -17.875748 20.072134 104.496185 58.297016 41.288548 -1.093920 0.824473 11.558044 -48.471237 16.992653 -13.316529 -82.302933 11.591231 10.196881 100.416901 4.138255 -17.321238 -4.687505 -2.763047 27.828545 -81.514488 -8.377082 -8.588406 75.252388 -1.787107 2.203876 13.397706 5.839594 -2.145795 
-32.507545 -13.663874 -8.128450 -5.715246 1.642191 49.152145 0.000000 0.000000 0.000000 39.627914 3.839901 -0.458582 -8.259228 13.169687 23.758181 -0.531255 -4.088291 -1.208717 23.031254 25.429255 25.000000 39.310661 -106.303032 -63.599239 1.089764 -0.911563 9.919493 50.546322 -5.636108 -13.379816 -18.749058 -17.436144 20.639542 104.996658 59.184135 41.880558 -1.094040 0.816127 11.567284 -48.462795 16.955559 -13.300263 -81.637299 11.600610 10.506466 100.249908 4.099034 -17.385368 -4.703422 -2.759251 27.789055 -81.118973 -8.349097 -8.225474 75.203964 -1.787152 2.192531 13.406053 5.845059 -2.074902 
-32.506371 -13.666913 -8.134703 -5.695570 1.593660 49.235672 0.000000 0.000000 0.000000 39.526775 3.958835 -0.557652 -8.239721 13.127483 23.737858 -0.531255 -4.088291 -1.208717 23.039728 25.448692 25.000000 40.007641 -106.497841 -64.323822 1.089962 -0.917168 9.890915 50.538284 -5.625754 -13.391981 -18.687269 -17.512260 20.580381 104.969742 59.101627 41.827278 -1.093909 0.823063 11.548381 -48.419571 16.980829 -13.299375 -81.709747 11.500617 10.465239 100.249382 4.108411 -17.393269 -4.741178 -2.739773 27.672602 -81.157387 -8.446677 -8.253398 75.223106 -1.787121 2.202845 13.390626 5.831179 -2.078318 
-32.508194 -13.667838 -8.137671 -5.705339 1.593633 49.274460 0.000000 0.000000 0.000000 39.528069 3.981432 -0.607409 -8.264880 13.125979 23.653843 -0.559964 -4.030109 -1.186636 23.032736 25.483358 25.000000 40.141869 -106.530876 -64.471497 1.090167 -0.914400 9.871582 50.541431 -5.634111 -13.402519 -18.677282 -17.532206 20.521965 104.979652 59.043148 41.837784 -1.093899 0.821654 11.538716 -48.417999 16.971231 -13.298386 -81.733238 11.463392 10.465989 100.241287 4.099584 -17.347336 -4.653658 -2.774717 27.747995 -81.156273 -8.475860 -8.231092 75.213898 -1.767985 2.207093 13.385213 5.822346 -2.019764 
-32.509838 -13.667088 -8.137870 -5.705339 1.593633 49.245167 0.000000 0.000000 0.000000 39.525063 3.928705 -0.582457 -8.263062 13.139142 23.533253 -0.588352 -3.943014 -1.159516 22.982512 25.522322 25.000000 40.181648 -106.509979 -64.502426 1.090369 -0.920005 9.843004 50.546642 -5.641186 -13.422518 -18.674784 -17.529928 20.413504 104.953957 58.916386 41.810883 -1.093888 0.820244 11.529053 -48.435406 16.958944 -13.298724 -81.729614 11.500797 10.464059 100.240219 4.118404 -17.363205 -4.649859 -2.751532 27.683048 -81.146309 -8.446411 -8.271914 75.183708 -1.787133 2.211094 13.420310 5.839067 -2.087516 
-32.508156 -13.667972 -8.142796 -5.724877 1.593579 49.293453 0.000000 0.000000 0.000000 39.527637 3.973900 -0.574548 -8.256107 13.153346 23.493498 -0.578136 -3.904561 -1.146874 22.972227 25.508024 25.000000 39.990158 -106.501251 -64.216530 1.090785 -0.914471 9.804337 50.525448 -5.633982 -13.417630 -18.689142 -17.464876 20.527662 104.840637 59.050190 41.758793 -1.093909 0.823063 11.548381 -48.406433 16.952730 -13.296194 -81.726006 11.444848 10.453776 100.231506 4.099580 -17.347366 -4.626651 -2.751393 27.734344 -81.130234 -8.505711 -8.284026 75.203682 -1.777418 2.209366 13.419946 5.839996 -2.087320 
-32.505684 -13.669077 -8.146056 -5.734674 1.603268 49.331264 0.000000 0.000000 0.000000 39.528069 3.981432 -0.539050 -8.269815 13.186408 23.447807 -0.519622 -3.924488 -1.157541 22.979282 25.512766 25.000000 39.592529 -106.478622 -63.762547 1.090886 -0.921460 9.785426 50.498039 -5.630640 -13.383410 -18.701462 -17.381453 20.644888 104.718384 59.186172 41.695225 -1.094051 0.817536 11.576949 -48.395866 16.954727 -13.289373 -81.709183 11.406541 10.464635 100.231270 4.102336 -17.353331 -4.628997 -2.759605 27.773109 -81.126259 -8.543940 -8.291280 75.213440 -1.777413 2.209711 13.421763 5.839118 -2.097464 
-32.504108 -13.669679 -8.144496 -5.724877 1.593579 49.312981 0.000000 0.000000 0.000000 39.468136 3.962165 -0.532402 -8.250997 13.184197 23.431713 -0.461319 -3.963704 -1.165179 22.975235 25.556904 25.000000 39.850822 -106.590744 -64.042641 1.090886 -0.921460 9.785426 50.496960 -5.620993 -13.382332 -18.699745 -17.407173 20.552952 104.683022 59.051548 41.671276 -1.094063 0.818946 11.586611 -48.404865 16.943138 -13.295203 -81.716415 11.425079 10.478800 100.231880 4.119053 -17.315737 -4.653885 -2.770917 27.770519 -81.151436 -8.554527 -8.340246 75.211891 -1.786796 2.241202 13.411497 5.830909 -2.149186 
-32.502808 -13.672164 -8.146143 -5.705259 1.564481 49.375023 0.000000 0.000000 0.000000 39.415154 4.063576 -0.640900 -8.227177 13.110025 23.465122 -0.421847 -3.935201 -1.152932 22.977596 25.487478 25.000000 40.385105 -106.639595 -64.586166 1.090781 -0.922844 9.795093 50.500111 -5.629354 -13.393826 -18.645321 -17.482679 20.591396 104.756355 59.087948 41.781269 -1.093909 0.823063 11.548381 -48.394871 16.934231 -13.296854 -81.764610 11.356811 10.453837 100.231789 4.099675 -17.337931 -4.624685 -2.764519 27.760803 -81.164780 -8.621728 -8.343310 75.231133 -1.777331 2.258522 13.388885 5.831680 -2.138316 
-32.504051 -13.673938 -8.146164 -5.705206 1.545047 49.406258 0.000000 0.000000 0.000000 39.379608 4.126235 -0.721176 -8.206468 13.070487 23.464087 -0.411537 -3.887082 -1.141703 22.965631 25.424940 25.000000 40.718636 -106.629150 -64.899864 1.090991 -0.920077 9.775760 50.504242 -5.626782 -13.412747 -18.591965 -17.518072 20.636835 104.820328 59.138325 41.880482 -1.093920 0.824473 11.558044 -48.410130 16.923243 -13.290586 -81.808723 11.335427 10.419646 100.240456 4.108922 -17.364744 -4.618882 -2.751228 27.660509 -81.178955 -8.662059 -8.369539 75.241264 -1.777336 2.249246 13.389129 5.853858 -2.192749 
-32.507267 -13.671822 -8.142870 -5.715001 1.554737 49.365967 0.000000 0.000000 0.000000 39.395168 4.057164 -0.667999 -8.211669 13.110773 23.399366 -0.391548 -3.848709 -1.129588 22.963017 25.486122 25.000000 40.603619 -106.625946 -64.757347 1.091094 -0.927066 9.756847 50.496300 -5.637007 -13.416649 -18.617830 -17.495609 20.531540 104.775818 59.016399 41.823498 -1.094028 0.814717 11.557623 -48.403866 16.922644 -13.302685 -81.791252 11.385000 10.457553 100.231529 4.109200 -17.336470 -4.578173 -2.759958 27.791445 -81.164528 -8.612085 -8.359765 75.231491 -1.777348 2.248896 13.405296 5.843065 -2.135447 
-32.507851 -13.670905 -8.145329 -5.724797 1.564428 49.394028 0.000000 0.000000 0.000000 39.415596 4.071120 -0.673776 -8.217344 13.108368 23.308891 -0.312745 -3.801298 -1.113087 22.960989 25.508345 25.000000 40.651894 -106.661385 -64.809685 1.091200 -0.925682 9.747183 50.513268 -5.626204 -13.409920 -18.631081 -17.498430 20.487169 104.767189 58.984940 41.799957 -1.094051 0.817536 11.576949 -48.401714 16.923943 -13.293226 -81.796898 11.367380 10.396971 100.249695 4.101966 -17.391018 -4.579948 -2.763841 27.652586 -81.150185 -8.642329 -8.385016 75.231491 -1.777348 2.248896 13.388708 5.847310 -2.174444 
-32.507462 -13.671139 -8.149059 -5.705180 1.535329 49.426765 0.000000 0.000000 0.000000 39.348953 4.105306 -0.692986 -8.194171 13.103965 23.203907 -0.165747 -3.783506 -1.116650 22.924177 25.532431 25.000000 41.013920 -106.776711 -65.193359 1.091518 -0.921532 9.718180 50.523380 -5.635269 -13.408175 -18.627003 -17.524694 20.414886 104.732384 58.882610 41.740803 -1.094051 0.817536 11.576949 -48.386456 16.934929 -13.299495 -81.821571 11.287835 10.299197 100.218269 4.088445 -17.472160 -4.752832 -2.734929 27.432819 -81.177963 -8.671463 -8.371474 75.221741 -1.777353 2.248552 13.393860 5.838067 -2.116383 
-32.505905 -13.670569 -8.154340 -5.685616 1.525664 49.477085 0.000000 0.000000 0.000000 39.312084 4.145373 -0.743051 -8.190619 13.066795 22.934534 0.001577 -3.688622 -1.083576 22.919252 25.576612 25.000000 41.158882 -106.860580 -65.343529 1.091518 -0.921532 9.718180 50.533390 -5.623759 -13.413727 -18.633436 -17.542530 20.360882 104.715385 58.820606 41.723072 -1.094028 0.814717 11.557623 -48.380192 16.934330 -13.314435 -81.873924 11.230211 10.341796 100.208855 4.108143 -17.440331 -4.645694 -2.748432 27.483641 -81.210091 -8.740332 -8.384770 75.240181 -1.774750 2.280001 13.374284 5.834790 -2.116419 
